<svg width="1780" height="438" viewBox="0 0 1780 438" fill="none" xmlns="http://www.w3.org/2000/svg">
<g opacity="0.5">
<path d="M1364.78 -642H1368.07C1471.87 -589.247 1570.3 -544.818 1663.08 -508.891C1705.47 -492.477 1746.79 -477.811 1787 -464.893V-463.316C1746.62 -476.279 1705.11 -491.006 1662.54 -507.492C1568.94 -543.738 1469.58 -588.639 1364.78 -642ZM1232.01 -642H1228.74C1368.11 -569.986 1499.27 -512.099 1621.56 -468.721C1678.46 -448.537 1733.65 -431.46 1787 -417.483V-419.032C1733.81 -432.98 1678.79 -450.013 1622.06 -470.135C1500.59 -513.223 1370.35 -570.638 1232.01 -642ZM1683.03 -526.878C1718.48 -512.549 1753.14 -499.462 1787 -487.593V-489.183C1753.32 -500.999 1718.85 -514.018 1683.59 -528.269C1604.96 -560.051 1522.03 -598.005 1435.03 -642H1431.71C1519.72 -597.418 1603.56 -558.996 1683.03 -526.878ZM1093.87 -642H1090.65C1265.43 -549.888 1429.13 -478.998 1580.58 -429.951C1651.87 -406.862 1720.76 -388.571 1787 -375.084V-376.619C1720.91 -390.088 1652.17 -408.342 1581.04 -431.378C1430.4 -480.164 1267.63 -550.577 1093.87 -642ZM1734.18 -269.435C1751.89 -268.137 1769.51 -267.178 1787 -266.545V-268.048C1769.54 -268.68 1751.97 -269.636 1734.29 -270.931C1646.15 -277.384 1553.19 -292.246 1457.98 -315.103C1218.14 -372.681 956.102 -482.272 675.7 -642H672.666C954.058 -481.491 1217.01 -371.412 1457.63 -313.644C1552.91 -290.768 1645.96 -275.894 1734.18 -269.435ZM1560.08 -410.566C1638.58 -386.31 1714.34 -367.82 1787 -355.117V-356.645C1714.47 -369.335 1638.87 -387.791 1560.53 -412C1395.18 -463.094 1215.96 -540.027 1024.35 -642H1021.15C1213.79 -539.322 1393.93 -461.909 1560.08 -410.566ZM1601.07 -449.336C1665.16 -427.603 1727.2 -409.78 1787 -395.865V-397.414C1727.35 -411.303 1665.47 -429.081 1601.55 -450.757C1465.54 -496.874 1319.11 -560.786 1163.14 -642H1159.9C1316.9 -560.118 1464.25 -495.728 1601.07 -449.336ZM1671.82 217.225C1711.34 196.102 1749.76 174.677 1787 153.018V151.283C1749.54 173.082 1710.88 194.645 1671.11 215.902C1558.96 275.856 1434.29 335.396 1300.59 392.866C1264.95 408.184 1228.99 423.218 1192.77 438H1196.74C1231.82 423.662 1266.65 409.086 1301.18 394.244C1434.92 336.757 1559.63 277.199 1671.82 217.225ZM1642.05 -488.107C1691.78 -469.67 1740.12 -453.619 1787 -439.956V-441.516C1740.29 -455.143 1692.12 -471.144 1642.57 -489.513C1535.51 -529.206 1421.29 -580.125 1300.36 -642H1297.06C1419.01 -579.49 1534.16 -528.107 1642.05 -488.107ZM1566 -642H1562.66C1618.45 -613.863 1672.26 -588.392 1724.01 -565.65C1745.33 -556.283 1766.32 -547.374 1787 -538.907V-540.527C1766.52 -548.919 1745.72 -557.747 1724.61 -567.024C1673.71 -589.394 1620.81 -614.406 1566 -642ZM1478.12 -333.028C1585.39 -305.868 1688.63 -289.144 1787 -282.905V-284.412C1688.75 -290.65 1585.63 -307.354 1478.49 -334.482C1253.64 -391.413 1008.15 -494.461 745.289 -642H742.229C1006.09 -493.697 1252.48 -390.158 1478.12 -333.028ZM1416.64 -274.877C1514.2 -253.926 1609.77 -241.263 1700.69 -237.237C1722.18 -236.285 1743.54 -235.811 1764.75 -235.811C1772.18 -235.811 1779.6 -235.884 1787 -236.001V-237.496C1758.53 -237.046 1729.76 -237.45 1700.76 -238.735C1609.92 -242.758 1514.44 -255.411 1416.96 -276.343C1147.07 -334.3 852.094 -456.996 537.203 -642H534.248C850.103 -456.194 1145.98 -333.001 1416.64 -274.877ZM1437.14 -294.26C1533.56 -272.347 1627.87 -258.578 1717.43 -253.335C1740.8 -251.968 1764 -251.18 1787 -250.952V-252.445C1764.03 -252.673 1740.86 -253.467 1717.52 -254.833C1628.04 -260.071 1533.81 -273.828 1437.47 -295.723C1182.61 -353.641 904.066 -469.774 606.302 -642H603.319C902.054 -468.987 1181.5 -352.356 1437.14 -294.26ZM538.044 -520.667C692.499 -436.884 844.478 -368 989.757 -315.928C1147.63 -259.341 1301.5 -221.215 1447.09 -202.61C1518.26 -193.516 1588.6 -188.942 1656.99 -188.942C1677.65 -188.942 1698.13 -189.36 1718.39 -190.195C1741.39 -191.144 1764.27 -192.641 1787 -194.676V-196.182C1764.25 -194.144 1741.35 -192.643 1718.33 -191.694C1631.05 -188.096 1539.86 -192.268 1447.28 -204.099C1301.8 -222.689 1148.04 -260.79 990.263 -317.34C845.055 -369.387 693.147 -438.239 538.76 -521.985C470.579 -558.969 401.585 -599.008 331.911 -642H329.058C399.458 -598.51 469.165 -558.029 538.044 -520.667ZM1787 147.408V145.686C1660.73 217.231 1520.15 285.68 1364.78 351.371C1293.69 381.431 1221.04 410.26 1147.29 438H1151.55C1224.04 410.685 1295.45 382.314 1365.37 352.753C1520.48 287.168 1660.87 218.831 1787 147.408ZM1501.05 -642H1497.73C1569.37 -605.825 1638.01 -573.881 1703.52 -546.264C1731.89 -534.306 1759.71 -523.158 1787 -512.785V-514.39C1759.9 -524.699 1732.27 -535.773 1704.1 -547.646C1639.43 -574.91 1571.71 -606.392 1501.05 -642ZM1569.14 -125.473C1467.33 -121.82 1361.42 -127.835 1254.34 -143.343C1106.52 -164.754 951.978 -204.898 795.002 -262.661C650.517 -315.827 500.717 -385.109 349.763 -468.584C255.55 -520.683 160.285 -578.57 64.3171 -642H61.603C158.242 -578.06 254.173 -519.731 349.037 -467.272C500.058 -383.759 649.928 -314.445 794.484 -261.253C951.558 -203.455 1106.2 -163.285 1254.13 -141.859C1341.02 -129.273 1427.13 -122.937 1510.93 -122.937C1530.48 -122.937 1549.92 -123.282 1569.19 -123.974C1642.87 -126.615 1715.79 -134.363 1787 -147.082V-148.606C1715.77 -135.872 1642.83 -128.115 1569.14 -125.473ZM1449.65 284.674C1309.77 338.806 1154.7 389.416 979.571 438H985.179C1158.22 389.844 1311.65 339.686 1450.19 286.072C1572.82 238.617 1684.54 188.331 1787 134.394V132.711C1684.4 186.758 1572.5 237.133 1449.65 284.674ZM1459.85 272.533C1298.34 332.697 1116.44 387.101 906.349 438H912.697C1120.31 387.505 1300.34 333.55 1460.37 273.939C1578.91 229.785 1687.27 182.408 1787 131.037V129.333C1687.13 180.817 1578.6 228.295 1459.85 272.533ZM1736.74 169.69C1753.7 160.729 1770.46 151.678 1787 142.543V140.828C1770.23 150.094 1753.24 159.275 1736.04 168.363C1635.68 221.388 1524.58 273.118 1405.84 322.118C1310.31 361.542 1208.01 400.015 1097.59 438H1102.2C1211.07 400.465 1312.04 362.45 1406.42 323.505C1525.2 274.486 1636.34 222.735 1736.74 169.69ZM1498.61 -352.412C1598.71 -325.723 1695.07 -308.182 1787 -299.852V-301.37C1695.19 -309.698 1598.96 -327.209 1499 -353.862C1289.09 -409.831 1060.18 -506.331 814.998 -642H811.911C1058.1 -505.584 1287.92 -408.592 1498.61 -352.412ZM1787 157.434C1728.28 192.535 1666.46 227.305 1601.88 261.513C1490.03 320.766 1366.71 380.046 1234.78 438H1238.5C1369.29 380.468 1491.58 321.641 1602.58 262.838C1666.9 228.768 1728.49 194.14 1787 159.182V157.434ZM12.2124 15.1328C208.551 77.916 411.575 142.837 620.604 189.722C771.817 223.638 911.061 244.358 1041.44 252.232C917.383 246.078 785.04 228.82 641.753 200.211C433.281 158.586 230.083 99.2812 33.5732 41.9297C-22.72 25.5004 -78.2908 9.28296 -133 -6.2207V-4.66174C-78.4272 10.8054 -22.9965 26.9818 33.1533 43.3691C229.693 100.73 432.923 160.044 641.46 201.682C805.439 234.423 955.112 252.319 1094.43 255.705C961.226 253.872 818.244 239.392 662.049 212.043C454.019 175.619 250.573 121.896 53.8262 69.9434C-9.40796 53.2455 -71.7461 36.7858 -133 21.2375V22.7852C-71.8706 38.3042 -9.66003 54.7305 53.4429 71.3936C250.221 123.354 453.697 177.085 661.791 213.521C838.805 244.515 998.881 259.005 1146.98 257.279C1004.78 260.401 851.162 249.293 681.766 223.787C474.119 192.521 270.379 144.357 73.3491 97.7812C3.40771 81.2474 -65.4568 64.9697 -133 49.8112V51.3489C-65.5688 66.485 3.18066 82.7354 73.0039 99.2412C270.064 145.824 473.834 193.994 681.542 225.271C872.268 253.989 1043 264.46 1199.98 256.93C1048.67 265.71 884.14 258.591 700.839 235.475C493.507 209.328 289.421 166.704 92.0532 125.484C15.6726 109.532 -59.4484 93.8429 -133 79.4841V81.0123C-59.5481 95.3542 15.4712 111.022 91.7466 126.952C289.143 168.179 493.26 210.809 700.651 236.963C905.405 262.785 1086.76 268.652 1252.44 254.705C1092.19 269.77 916.757 267.243 719.196 247.148C512.103 226.085 307.603 188.982 109.836 153.101C27.3204 138.13 -53.7483 123.423 -133 110.247V111.768C-53.8357 124.932 27.1445 139.623 109.568 154.577C307.363 190.464 511.893 227.571 719.044 248.641C938.248 270.935 1130.23 271.611 1304.47 250.638C1135.41 272.612 949.039 275.279 736.753 258.854C529.806 242.843 324.817 211.246 126.579 180.689C38.2784 167.079 -48.3933 153.72 -133 142.079V143.598C-48.4683 155.229 38.1276 168.573 126.35 182.172C324.617 212.732 529.634 244.334 736.638 260.35C970.405 278.435 1172.77 273.376 1355.23 244.893C1177.68 274.282 980.591 282.705 753.411 270.646C546.506 259.66 340.939 233.558 142.141 208.313C48.4583 196.418 -43.4238 184.752 -133 174.965V176.474C-43.4863 186.256 48.3334 197.914 141.952 209.802C340.777 235.049 546.372 261.155 753.332 272.144C987.592 284.58 1189.89 275.247 1371.77 243.61C1378.12 242.506 1384.46 241.369 1390.77 240.206C1391.56 240.096 1392.34 239.983 1393.12 239.873C1390.71 240.342 1388.31 240.828 1385.9 241.289C1204.97 275.843 1003.2 289.347 769.054 282.587C562.068 276.607 355.819 255.991 156.361 236.054C57.7568 226.198 -38.8884 216.538 -133 208.887V210.392C-38.9384 218.041 57.6577 227.696 156.212 237.547C355.696 257.486 561.972 278.105 769.011 284.086C1003.27 290.857 1205.15 277.336 1386.18 242.763C1398.57 240.396 1410.9 237.912 1423.17 235.331C1424.56 235.107 1425.95 234.885 1427.33 234.658C1224.04 279.788 1014.24 294.782 804.54 294.782C590.292 294.782 376.049 279.128 169.048 264.001C66.05 256.474 -34.8436 249.104 -133 243.826V245.327C-34.8811 250.604 65.9773 257.972 168.939 265.497C376.091 280.635 590.247 296.288 804.654 296.288C1023.86 296.288 1243.18 279.896 1455.11 229.837C1457.88 229.33 1460.65 228.815 1463.41 228.294C1446.54 232.522 1429.56 236.583 1412.43 240.437C1232.79 280.862 1031.39 302.711 796.718 307.231C589.125 311.225 381.125 301.59 179.973 292.265C72.7585 287.295 -31.6289 282.46 -133 279.753V281.255C-31.6541 283.962 72.7117 288.795 179.903 293.764C381.08 303.089 589.105 312.725 796.747 308.731C1031.52 304.209 1233.02 282.348 1412.76 241.899C1438.75 236.052 1464.45 229.769 1489.82 223.065C1492.86 222.435 1495.89 221.797 1498.92 221.149C1474.37 227.996 1449.51 234.476 1424.37 240.562C1245.13 283.943 1043.64 309.971 808.378 320.131C600.207 329.12 391.092 324.98 188.862 320.979C79.686 318.818 -27.9935 316.691 -133 316.701V318.196C-132.76 318.196 -132.52 318.195 -132.28 318.195C-27.5361 318.195 79.9385 320.322 188.832 322.478C391.086 326.482 600.225 330.622 808.443 321.629C1043.8 311.466 1245.39 285.425 1424.73 242.02C1458.36 233.879 1491.49 225.035 1524.04 215.538C1527.65 214.698 1531.26 213.846 1534.87 212.979C1502.24 223.012 1469.01 232.427 1435.25 241.169C1256.21 287.536 1054.39 317.764 818.285 333.579C609.311 347.577 398.884 348.961 195.386 350.3C83.9519 351.033 -25.9218 351.758 -133 354.548V356.048C-25.9214 353.258 83.9568 352.533 195.396 351.8C398.917 350.461 609.366 349.076 818.385 335.075C1054.59 319.254 1256.49 289.012 1435.63 242.62C1477.78 231.705 1519.11 219.742 1559.46 206.827C1563.59 205.756 1567.7 204.67 1571.81 203.565C1530.51 217.47 1488.16 230.436 1444.91 242.365C1265.82 291.763 1063.42 326.229 826.145 347.733C616.1 366.771 404.13 373.711 199.139 380.422C86.4014 384.113 -24.7297 387.757 -133 393.326V394.828C-24.7168 389.257 86.4321 385.613 199.189 381.921C404.201 375.209 616.193 368.269 826.28 349.228C1063.64 327.715 1266.13 293.232 1445.31 243.811C1497.2 229.499 1547.82 213.715 1596.84 196.581C1601.3 195.292 1605.75 193.976 1610.2 192.642C1559.5 211.245 1507.03 228.514 1453.12 244.283C1273.7 296.775 1070.4 335.538 831.593 362.786C620.162 386.912 406.374 399.453 199.625 411.582C86.7137 418.206 -24.5774 424.74 -133 433.004V434.508C-24.552 426.241 86.7699 419.705 199.714 413.079C406.482 400.95 620.291 388.407 831.764 364.277C1070.65 337.019 1274.04 298.239 1453.55 245.723C1516.23 227.383 1577 207.02 1635.28 184.88C1640.29 183.275 1645.29 181.633 1650.29 179.973C1589.37 204.235 1525.59 226.699 1459.63 247.09C1080 364.454 668.869 403.936 268.063 438H285.738C681.064 404.254 1085.83 364.221 1460.08 248.523C1535.27 225.277 1607.62 199.333 1676.15 171.105C1681.46 169.224 1686.76 167.305 1692.06 165.361C1620.12 196.363 1543.74 225.071 1464.1 250.997C1169.3 346.959 854.286 398.782 539.408 438H551.53C862.503 398.949 1173.37 347.212 1464.56 252.424C1554.29 223.216 1639.87 190.477 1719.63 154.904C1725.07 152.778 1730.49 150.623 1735.91 148.43C1652.08 187.453 1561.47 223.686 1466.06 256.279C1222.22 339.577 963.837 394.677 702.747 438H711.885C970.015 394.891 1225.38 340.084 1466.54 257.698C1572.23 221.594 1672.07 181.035 1763.29 137.151C1764.22 136.706 1765.13 136.252 1766.05 135.806C1771.8 133.325 1777.52 130.81 1783.24 128.253C1777.04 131.367 1770.83 134.462 1764.58 137.535C1672.68 182.774 1571.85 225.087 1464.92 263.296C1279.96 329.385 1068.29 386.498 817.806 437.9C817.643 437.934 817.48 437.967 817.317 438H824.756C1072.4 386.939 1282.04 330.235 1465.42 264.708C1572.41 226.479 1673.29 184.146 1765.25 138.881C1772.54 135.292 1779.78 131.667 1787 128.02V116.573C1785.1 117.437 1783.21 118.309 1781.3 119.166C1780.62 119.472 1779.93 119.776 1779.25 120.08C1776.53 121.298 1773.8 122.493 1771.08 123.698C1740.88 136.94 1710.44 149.241 1679.77 160.65C1663.77 166.53 1647.58 172.223 1631.19 177.694C1609.42 184.858 1587.33 191.65 1564.93 198.041C1543.98 203.907 1522.76 209.406 1501.31 214.55C1481.76 219.126 1462.01 223.392 1442.08 227.334C1423.26 230.943 1404.28 234.26 1385.15 237.274C1363.52 240.544 1341.7 243.405 1319.73 245.877C1310.26 246.879 1300.76 247.808 1291.24 248.655C1282.03 249.474 1272.77 250.203 1263.48 250.884C1244.07 252.165 1224.47 253.143 1204.67 253.794C1028.53 258.249 836.944 236.709 620.933 188.258C411.968 141.388 208.977 76.4775 12.6694 13.7041C-36.4794 -2.01208 -85.0686 -17.5488 -133 -32.5529V-30.9814C-85.2175 -16.022 -36.7805 -0.533691 12.2124 15.1328ZM1744.5 -585.037C1758.82 -578.48 1772.98 -572.139 1787 -565.992V-567.631C1773.19 -573.693 1759.23 -579.941 1745.12 -586.401C1707.77 -603.505 1669.27 -622.053 1629.69 -642H1626.36C1666.89 -621.532 1706.29 -602.532 1744.5 -585.037ZM1751.84 156.79C1763.66 150.629 1775.38 144.414 1787 138.151V136.441C1775.15 142.832 1763.21 149.175 1751.15 155.46C1654.1 206.04 1546.92 254.907 1432.58 300.702C1314.13 348.141 1184.97 393.604 1042.3 438H1047.36C1188.24 394.046 1315.92 349.037 1433.13 302.094C1547.52 256.281 1654.75 207.394 1751.84 156.79ZM443.649 -494.008C596.493 -410.381 747.548 -341.309 892.619 -288.709C1050.26 -231.551 1204.71 -192.446 1351.69 -172.48C1430.4 -161.788 1508.31 -156.408 1584.09 -156.408C1604.51 -156.408 1624.78 -156.799 1644.86 -157.582C1692.74 -159.448 1740.22 -163.588 1787 -169.917V-171.43C1740.2 -165.092 1692.7 -160.948 1644.81 -159.081C1550.28 -155.395 1451.73 -160.404 1351.89 -173.967C1205.02 -193.918 1050.67 -232.998 893.13 -290.119C748.131 -342.692 597.146 -411.733 444.369 -495.324C362.855 -539.924 280.37 -588.872 197.14 -642H194.349C278.281 -588.364 361.458 -538.978 443.649 -494.008ZM1519.1 -371.797C1612 -345.747 1701.49 -327.647 1787 -317.533V-319.045C1701.62 -329.153 1612.27 -347.23 1519.51 -373.241C1324.51 -427.92 1112.2 -517.898 884.826 -642H881.696C1110.08 -517.162 1323.31 -426.7 1519.1 -371.797ZM1787 -335.944V-337.461C1708.05 -349.027 1625.57 -367.422 1540.02 -392.621C1359.87 -445.68 1164.12 -529.123 954.609 -642H951.46C1161.98 -528.406 1358.65 -444.475 1539.59 -391.181C1625.29 -365.941 1707.91 -347.518 1787 -335.944ZM1667.2 -205.04C1675.67 -204.896 1684.11 -204.824 1692.54 -204.824C1724.31 -204.824 1755.83 -205.866 1787 -207.903V-209.411C1747.57 -206.831 1707.59 -205.85 1667.22 -206.54C1573.69 -208.13 1475.69 -218.576 1375.94 -237.583C1075.93 -294.753 748.358 -430.578 399.958 -642H397.064C746.409 -429.749 1074.86 -293.429 1375.66 -236.109C1475.49 -217.086 1573.58 -206.632 1667.2 -205.04ZM1683.94 -221.138C1698.91 -220.683 1713.81 -220.455 1728.65 -220.455C1748.22 -220.455 1767.68 -220.86 1787 -221.65V-223.161C1753.04 -221.772 1718.67 -221.581 1683.99 -222.637C1591.8 -225.444 1495.06 -236.993 1396.45 -256.963C1111.51 -314.667 800.184 -443.927 468.405 -642H465.48C798.214 -443.112 1110.43 -313.356 1396.15 -255.493C1494.85 -235.506 1591.67 -223.947 1683.94 -221.138ZM941.316 -302.354C1099.12 -245.492 1253.33 -206.888 1399.67 -187.615C1474.53 -177.756 1548.57 -172.797 1620.58 -172.797C1641.19 -172.797 1661.65 -173.204 1681.9 -174.019C1717.22 -175.439 1752.29 -178.12 1787 -182.032V-183.541C1752.27 -179.622 1717.18 -176.939 1681.84 -175.517C1590.94 -171.859 1496.07 -176.431 1399.86 -189.102C1253.63 -208.36 1099.52 -246.939 941.825 -303.765C796.683 -356.066 645.203 -425.006 491.593 -508.668C416.664 -549.478 340.838 -593.961 264.284 -642H261.47C338.734 -593.46 415.262 -548.534 490.875 -507.352C644.552 -423.652 796.102 -354.681 941.316 -302.354ZM396.369 -480.646C548.327 -397.081 698.821 -327.893 843.671 -275.004C1001.07 -217.535 1155.67 -177.908 1303.17 -157.223C1385.89 -145.623 1467.83 -139.785 1547.54 -139.785C1567.61 -139.785 1587.53 -140.155 1607.29 -140.896C1667.95 -143.172 1728.05 -148.988 1787 -158.257V-159.775C1728.03 -150.494 1667.92 -144.672 1607.24 -142.395C1509.07 -138.712 1406.84 -144.2 1303.38 -158.708C1155.98 -179.378 1001.48 -218.98 844.186 -276.414C699.407 -329.275 548.983 -398.432 397.091 -481.959C309.148 -530.322 220.181 -583.739 130.476 -642H127.723C218.116 -583.23 307.761 -529.373 396.369 -480.646Z" fill="#C7B289"/>
<path d="M1364.78 -642H1368.07C1471.87 -589.247 1570.3 -544.818 1663.08 -508.891C1705.47 -492.477 1746.79 -477.811 1787 -464.893V-463.316C1746.62 -476.279 1705.11 -491.006 1662.54 -507.492C1568.94 -543.738 1469.58 -588.639 1364.78 -642ZM1232.01 -642H1228.74C1368.11 -569.986 1499.27 -512.099 1621.56 -468.721C1678.46 -448.537 1733.65 -431.46 1787 -417.483V-419.032C1733.81 -432.98 1678.79 -450.013 1622.06 -470.135C1500.59 -513.223 1370.35 -570.638 1232.01 -642ZM1683.03 -526.878C1718.48 -512.549 1753.14 -499.462 1787 -487.593V-489.183C1753.32 -500.999 1718.85 -514.018 1683.59 -528.269C1604.96 -560.051 1522.03 -598.005 1435.03 -642H1431.71C1519.72 -597.418 1603.56 -558.996 1683.03 -526.878ZM1093.87 -642H1090.65C1265.43 -549.888 1429.13 -478.998 1580.58 -429.951C1651.87 -406.862 1720.76 -388.571 1787 -375.084V-376.619C1720.91 -390.088 1652.17 -408.342 1581.04 -431.378C1430.4 -480.164 1267.63 -550.577 1093.87 -642ZM1734.18 -269.435C1751.89 -268.137 1769.51 -267.178 1787 -266.545V-268.048C1769.54 -268.68 1751.97 -269.636 1734.29 -270.931C1646.15 -277.384 1553.19 -292.246 1457.98 -315.103C1218.14 -372.681 956.102 -482.272 675.7 -642H672.666C954.058 -481.491 1217.01 -371.412 1457.63 -313.644C1552.91 -290.768 1645.96 -275.894 1734.18 -269.435ZM1560.08 -410.566C1638.58 -386.31 1714.34 -367.82 1787 -355.117V-356.645C1714.47 -369.335 1638.87 -387.791 1560.53 -412C1395.18 -463.094 1215.96 -540.027 1024.35 -642H1021.15C1213.79 -539.322 1393.93 -461.909 1560.08 -410.566ZM1601.07 -449.336C1665.16 -427.603 1727.2 -409.78 1787 -395.865V-397.414C1727.35 -411.303 1665.47 -429.081 1601.55 -450.757C1465.54 -496.874 1319.11 -560.786 1163.14 -642H1159.9C1316.9 -560.118 1464.25 -495.728 1601.07 -449.336ZM1671.82 217.225C1711.34 196.102 1749.76 174.677 1787 153.018V151.283C1749.54 173.082 1710.88 194.645 1671.11 215.902C1558.96 275.856 1434.29 335.396 1300.59 392.866C1264.95 408.184 1228.99 423.218 1192.77 438H1196.74C1231.82 423.662 1266.65 409.086 1301.18 394.244C1434.92 336.757 1559.63 277.199 1671.82 217.225ZM1642.05 -488.107C1691.78 -469.67 1740.12 -453.619 1787 -439.956V-441.516C1740.29 -455.143 1692.12 -471.144 1642.57 -489.513C1535.51 -529.206 1421.29 -580.125 1300.36 -642H1297.06C1419.01 -579.49 1534.16 -528.107 1642.05 -488.107ZM1566 -642H1562.66C1618.45 -613.863 1672.26 -588.392 1724.01 -565.65C1745.33 -556.283 1766.32 -547.374 1787 -538.907V-540.527C1766.52 -548.919 1745.72 -557.747 1724.61 -567.024C1673.71 -589.394 1620.81 -614.406 1566 -642ZM1478.12 -333.028C1585.39 -305.868 1688.63 -289.144 1787 -282.905V-284.412C1688.75 -290.65 1585.63 -307.354 1478.49 -334.482C1253.64 -391.413 1008.15 -494.461 745.289 -642H742.229C1006.09 -493.697 1252.48 -390.158 1478.12 -333.028ZM1416.64 -274.877C1514.2 -253.926 1609.77 -241.263 1700.69 -237.237C1722.18 -236.285 1743.54 -235.811 1764.75 -235.811C1772.18 -235.811 1779.6 -235.884 1787 -236.001V-237.496C1758.53 -237.046 1729.76 -237.45 1700.76 -238.735C1609.92 -242.758 1514.44 -255.411 1416.96 -276.343C1147.07 -334.3 852.094 -456.996 537.203 -642H534.248C850.103 -456.194 1145.98 -333.001 1416.64 -274.877ZM1437.14 -294.26C1533.56 -272.347 1627.87 -258.578 1717.43 -253.335C1740.8 -251.968 1764 -251.18 1787 -250.952V-252.445C1764.03 -252.673 1740.86 -253.467 1717.52 -254.833C1628.04 -260.071 1533.81 -273.828 1437.47 -295.723C1182.61 -353.641 904.066 -469.774 606.302 -642H603.319C902.054 -468.987 1181.5 -352.356 1437.14 -294.26ZM538.044 -520.667C692.499 -436.884 844.478 -368 989.757 -315.928C1147.63 -259.341 1301.5 -221.215 1447.09 -202.61C1518.26 -193.516 1588.6 -188.942 1656.99 -188.942C1677.65 -188.942 1698.13 -189.36 1718.39 -190.195C1741.39 -191.144 1764.27 -192.641 1787 -194.676V-196.182C1764.25 -194.144 1741.35 -192.643 1718.33 -191.694C1631.05 -188.096 1539.86 -192.268 1447.28 -204.099C1301.8 -222.689 1148.04 -260.79 990.263 -317.34C845.055 -369.387 693.147 -438.239 538.76 -521.985C470.579 -558.969 401.585 -599.008 331.911 -642H329.058C399.458 -598.51 469.165 -558.029 538.044 -520.667ZM1787 147.408V145.686C1660.73 217.231 1520.15 285.68 1364.78 351.371C1293.69 381.431 1221.04 410.26 1147.29 438H1151.55C1224.04 410.685 1295.45 382.314 1365.37 352.753C1520.48 287.168 1660.87 218.831 1787 147.408ZM1501.05 -642H1497.73C1569.37 -605.825 1638.01 -573.881 1703.52 -546.264C1731.89 -534.306 1759.71 -523.158 1787 -512.785V-514.39C1759.9 -524.699 1732.27 -535.773 1704.1 -547.646C1639.43 -574.91 1571.71 -606.392 1501.05 -642ZM1569.14 -125.473C1467.33 -121.82 1361.42 -127.835 1254.34 -143.343C1106.52 -164.754 951.978 -204.898 795.002 -262.661C650.517 -315.827 500.717 -385.109 349.763 -468.584C255.55 -520.683 160.285 -578.57 64.3171 -642H61.603C158.242 -578.06 254.173 -519.731 349.037 -467.272C500.058 -383.759 649.928 -314.445 794.484 -261.253C951.558 -203.455 1106.2 -163.285 1254.13 -141.859C1341.02 -129.273 1427.13 -122.937 1510.93 -122.937C1530.48 -122.937 1549.92 -123.282 1569.19 -123.974C1642.87 -126.615 1715.79 -134.363 1787 -147.082V-148.606C1715.77 -135.872 1642.83 -128.115 1569.14 -125.473ZM1449.65 284.674C1309.77 338.806 1154.7 389.416 979.571 438H985.179C1158.22 389.844 1311.65 339.686 1450.19 286.072C1572.82 238.617 1684.54 188.331 1787 134.394V132.711C1684.4 186.758 1572.5 237.133 1449.65 284.674ZM1459.85 272.533C1298.34 332.697 1116.44 387.101 906.349 438H912.697C1120.31 387.505 1300.34 333.55 1460.37 273.939C1578.91 229.785 1687.27 182.408 1787 131.037V129.333C1687.13 180.817 1578.6 228.295 1459.85 272.533ZM1736.74 169.69C1753.7 160.729 1770.46 151.678 1787 142.543V140.828C1770.23 150.094 1753.24 159.275 1736.04 168.363C1635.68 221.388 1524.58 273.118 1405.84 322.118C1310.31 361.542 1208.01 400.015 1097.59 438H1102.2C1211.07 400.465 1312.04 362.45 1406.42 323.505C1525.2 274.486 1636.34 222.735 1736.74 169.69ZM1498.61 -352.412C1598.71 -325.723 1695.07 -308.182 1787 -299.852V-301.37C1695.19 -309.698 1598.96 -327.209 1499 -353.862C1289.09 -409.831 1060.18 -506.331 814.998 -642H811.911C1058.1 -505.584 1287.92 -408.592 1498.61 -352.412ZM1787 157.434C1728.28 192.535 1666.46 227.305 1601.88 261.513C1490.03 320.766 1366.71 380.046 1234.78 438H1238.5C1369.29 380.468 1491.58 321.641 1602.58 262.838C1666.9 228.768 1728.49 194.14 1787 159.182V157.434ZM12.2124 15.1328C208.551 77.916 411.575 142.837 620.604 189.722C771.817 223.638 911.061 244.358 1041.44 252.232C917.383 246.078 785.04 228.82 641.753 200.211C433.281 158.586 230.083 99.2812 33.5732 41.9297C-22.72 25.5004 -78.2908 9.28296 -133 -6.2207V-4.66174C-78.4272 10.8054 -22.9965 26.9818 33.1533 43.3691C229.693 100.73 432.923 160.044 641.46 201.682C805.439 234.423 955.112 252.319 1094.43 255.705C961.226 253.872 818.244 239.392 662.049 212.043C454.019 175.619 250.573 121.896 53.8262 69.9434C-9.40796 53.2455 -71.7461 36.7858 -133 21.2375V22.7852C-71.8706 38.3042 -9.66003 54.7305 53.4429 71.3936C250.221 123.354 453.697 177.085 661.791 213.521C838.805 244.515 998.881 259.005 1146.98 257.279C1004.78 260.401 851.162 249.293 681.766 223.787C474.119 192.521 270.379 144.357 73.3491 97.7812C3.40771 81.2474 -65.4568 64.9697 -133 49.8112V51.3489C-65.5688 66.485 3.18066 82.7354 73.0039 99.2412C270.064 145.824 473.834 193.994 681.542 225.271C872.268 253.989 1043 264.46 1199.98 256.93C1048.67 265.71 884.14 258.591 700.839 235.475C493.507 209.328 289.421 166.704 92.0532 125.484C15.6726 109.532 -59.4484 93.8429 -133 79.4841V81.0123C-59.5481 95.3542 15.4712 111.022 91.7466 126.952C289.143 168.179 493.26 210.809 700.651 236.963C905.405 262.785 1086.76 268.652 1252.44 254.705C1092.19 269.77 916.757 267.243 719.196 247.148C512.103 226.085 307.603 188.982 109.836 153.101C27.3204 138.13 -53.7483 123.423 -133 110.247V111.768C-53.8357 124.932 27.1445 139.623 109.568 154.577C307.363 190.464 511.893 227.571 719.044 248.641C938.248 270.935 1130.23 271.611 1304.47 250.638C1135.41 272.612 949.039 275.279 736.753 258.854C529.806 242.843 324.817 211.246 126.579 180.689C38.2784 167.079 -48.3933 153.72 -133 142.079V143.598C-48.4683 155.229 38.1276 168.573 126.35 182.172C324.617 212.732 529.634 244.334 736.638 260.35C970.405 278.435 1172.77 273.376 1355.23 244.893C1177.68 274.282 980.591 282.705 753.411 270.646C546.506 259.66 340.939 233.558 142.141 208.313C48.4583 196.418 -43.4238 184.752 -133 174.965V176.474C-43.4863 186.256 48.3334 197.914 141.952 209.802C340.777 235.049 546.372 261.155 753.332 272.144C987.592 284.58 1189.89 275.247 1371.77 243.61C1378.12 242.506 1384.46 241.369 1390.77 240.206C1391.56 240.096 1392.34 239.983 1393.12 239.873C1390.71 240.342 1388.31 240.828 1385.9 241.289C1204.97 275.843 1003.2 289.347 769.054 282.587C562.068 276.607 355.819 255.991 156.361 236.054C57.7568 226.198 -38.8884 216.538 -133 208.887V210.392C-38.9384 218.041 57.6577 227.696 156.212 237.547C355.696 257.486 561.972 278.105 769.011 284.086C1003.27 290.857 1205.15 277.336 1386.18 242.763C1398.57 240.396 1410.9 237.912 1423.17 235.331C1424.56 235.107 1425.95 234.885 1427.33 234.658C1224.04 279.788 1014.24 294.782 804.54 294.782C590.292 294.782 376.049 279.128 169.048 264.001C66.05 256.474 -34.8436 249.104 -133 243.826V245.327C-34.8811 250.604 65.9773 257.972 168.939 265.497C376.091 280.635 590.247 296.288 804.654 296.288C1023.86 296.288 1243.18 279.896 1455.11 229.837C1457.88 229.33 1460.65 228.815 1463.41 228.294C1446.54 232.522 1429.56 236.583 1412.43 240.437C1232.79 280.862 1031.39 302.711 796.718 307.231C589.125 311.225 381.125 301.59 179.973 292.265C72.7585 287.295 -31.6289 282.46 -133 279.753V281.255C-31.6541 283.962 72.7117 288.795 179.903 293.764C381.08 303.089 589.105 312.725 796.747 308.731C1031.52 304.209 1233.02 282.348 1412.76 241.899C1438.75 236.052 1464.45 229.769 1489.82 223.065C1492.86 222.435 1495.89 221.797 1498.92 221.149C1474.37 227.996 1449.51 234.476 1424.37 240.562C1245.13 283.943 1043.64 309.971 808.378 320.131C600.207 329.12 391.092 324.98 188.862 320.979C79.686 318.818 -27.9935 316.691 -133 316.701V318.196C-132.76 318.196 -132.52 318.195 -132.28 318.195C-27.5361 318.195 79.9385 320.322 188.832 322.478C391.086 326.482 600.225 330.622 808.443 321.629C1043.8 311.466 1245.39 285.425 1424.73 242.02C1458.36 233.879 1491.49 225.035 1524.04 215.538C1527.65 214.698 1531.26 213.846 1534.87 212.979C1502.24 223.012 1469.01 232.427 1435.25 241.169C1256.21 287.536 1054.39 317.764 818.285 333.579C609.311 347.577 398.884 348.961 195.386 350.3C83.9519 351.033 -25.9218 351.758 -133 354.548V356.048C-25.9214 353.258 83.9568 352.533 195.396 351.8C398.917 350.461 609.366 349.076 818.385 335.075C1054.59 319.254 1256.49 289.012 1435.63 242.62C1477.78 231.705 1519.11 219.742 1559.46 206.827C1563.59 205.756 1567.7 204.67 1571.81 203.565C1530.51 217.47 1488.16 230.436 1444.91 242.365C1265.82 291.763 1063.42 326.229 826.145 347.733C616.1 366.771 404.13 373.711 199.139 380.422C86.4014 384.113 -24.7297 387.757 -133 393.326V394.828C-24.7168 389.257 86.4321 385.613 199.189 381.921C404.201 375.209 616.193 368.269 826.28 349.228C1063.64 327.715 1266.13 293.232 1445.31 243.811C1497.2 229.499 1547.82 213.715 1596.84 196.581C1601.3 195.292 1605.75 193.976 1610.2 192.642C1559.5 211.245 1507.03 228.514 1453.12 244.283C1273.7 296.775 1070.4 335.538 831.593 362.786C620.162 386.912 406.374 399.453 199.625 411.582C86.7137 418.206 -24.5774 424.74 -133 433.004V434.508C-24.552 426.241 86.7699 419.705 199.714 413.079C406.482 400.95 620.291 388.407 831.764 364.277C1070.65 337.019 1274.04 298.239 1453.55 245.723C1516.23 227.383 1577 207.02 1635.28 184.88C1640.29 183.275 1645.29 181.633 1650.29 179.973C1589.37 204.235 1525.59 226.699 1459.63 247.09C1080 364.454 668.869 403.936 268.063 438H285.738C681.064 404.254 1085.83 364.221 1460.08 248.523C1535.27 225.277 1607.62 199.333 1676.15 171.105C1681.46 169.224 1686.76 167.305 1692.06 165.361C1620.12 196.363 1543.74 225.071 1464.1 250.997C1169.3 346.959 854.286 398.782 539.408 438H551.53C862.503 398.949 1173.37 347.212 1464.56 252.424C1554.29 223.216 1639.87 190.477 1719.63 154.904C1725.07 152.778 1730.49 150.623 1735.91 148.43C1652.08 187.453 1561.47 223.686 1466.06 256.279C1222.22 339.577 963.837 394.677 702.747 438H711.885C970.015 394.891 1225.38 340.084 1466.54 257.698C1572.23 221.594 1672.07 181.035 1763.29 137.151C1764.22 136.706 1765.13 136.252 1766.05 135.806C1771.8 133.325 1777.52 130.81 1783.24 128.253C1777.04 131.367 1770.83 134.462 1764.58 137.535C1672.68 182.774 1571.85 225.087 1464.92 263.296C1279.96 329.385 1068.29 386.498 817.806 437.9C817.643 437.934 817.48 437.967 817.317 438H824.756C1072.4 386.939 1282.04 330.235 1465.42 264.708C1572.41 226.479 1673.29 184.146 1765.25 138.881C1772.54 135.292 1779.78 131.667 1787 128.02V116.573C1785.1 117.437 1783.21 118.309 1781.3 119.166C1780.62 119.472 1779.93 119.776 1779.25 120.08C1776.53 121.298 1773.8 122.493 1771.08 123.698C1740.88 136.94 1710.44 149.241 1679.77 160.65C1663.77 166.53 1647.58 172.223 1631.19 177.694C1609.42 184.858 1587.33 191.65 1564.93 198.041C1543.98 203.907 1522.76 209.406 1501.31 214.55C1481.76 219.126 1462.01 223.392 1442.08 227.334C1423.26 230.943 1404.28 234.26 1385.15 237.274C1363.52 240.544 1341.7 243.405 1319.73 245.877C1310.26 246.879 1300.76 247.808 1291.24 248.655C1282.03 249.474 1272.77 250.203 1263.48 250.884C1244.07 252.165 1224.47 253.143 1204.67 253.794C1028.53 258.249 836.944 236.709 620.933 188.258C411.968 141.388 208.977 76.4775 12.6694 13.7041C-36.4794 -2.01208 -85.0686 -17.5488 -133 -32.5529V-30.9814C-85.2175 -16.022 -36.7805 -0.533691 12.2124 15.1328ZM1744.5 -585.037C1758.82 -578.48 1772.98 -572.139 1787 -565.992V-567.631C1773.19 -573.693 1759.23 -579.941 1745.12 -586.401C1707.77 -603.505 1669.27 -622.053 1629.69 -642H1626.36C1666.89 -621.532 1706.29 -602.532 1744.5 -585.037ZM1751.84 156.79C1763.66 150.629 1775.38 144.414 1787 138.151V136.441C1775.15 142.832 1763.21 149.175 1751.15 155.46C1654.1 206.04 1546.92 254.907 1432.58 300.702C1314.13 348.141 1184.97 393.604 1042.3 438H1047.36C1188.24 394.046 1315.92 349.037 1433.13 302.094C1547.52 256.281 1654.75 207.394 1751.84 156.79ZM443.649 -494.008C596.493 -410.381 747.548 -341.309 892.619 -288.709C1050.26 -231.551 1204.71 -192.446 1351.69 -172.48C1430.4 -161.788 1508.31 -156.408 1584.09 -156.408C1604.51 -156.408 1624.78 -156.799 1644.86 -157.582C1692.74 -159.448 1740.22 -163.588 1787 -169.917V-171.43C1740.2 -165.092 1692.7 -160.948 1644.81 -159.081C1550.28 -155.395 1451.73 -160.404 1351.89 -173.967C1205.02 -193.918 1050.67 -232.998 893.13 -290.119C748.131 -342.692 597.146 -411.733 444.369 -495.324C362.855 -539.924 280.37 -588.872 197.14 -642H194.349C278.281 -588.364 361.458 -538.978 443.649 -494.008ZM1519.1 -371.797C1612 -345.747 1701.49 -327.647 1787 -317.533V-319.045C1701.62 -329.153 1612.27 -347.23 1519.51 -373.241C1324.51 -427.92 1112.2 -517.898 884.826 -642H881.696C1110.08 -517.162 1323.31 -426.7 1519.1 -371.797ZM1787 -335.944V-337.461C1708.05 -349.027 1625.57 -367.422 1540.02 -392.621C1359.87 -445.68 1164.12 -529.123 954.609 -642H951.46C1161.98 -528.406 1358.65 -444.475 1539.59 -391.181C1625.29 -365.941 1707.91 -347.518 1787 -335.944ZM1667.2 -205.04C1675.67 -204.896 1684.11 -204.824 1692.54 -204.824C1724.31 -204.824 1755.83 -205.866 1787 -207.903V-209.411C1747.57 -206.831 1707.59 -205.85 1667.22 -206.54C1573.69 -208.13 1475.69 -218.576 1375.94 -237.583C1075.93 -294.753 748.358 -430.578 399.958 -642H397.064C746.409 -429.749 1074.86 -293.429 1375.66 -236.109C1475.49 -217.086 1573.58 -206.632 1667.2 -205.04ZM1683.94 -221.138C1698.91 -220.683 1713.81 -220.455 1728.65 -220.455C1748.22 -220.455 1767.68 -220.86 1787 -221.65V-223.161C1753.04 -221.772 1718.67 -221.581 1683.99 -222.637C1591.8 -225.444 1495.06 -236.993 1396.45 -256.963C1111.51 -314.667 800.184 -443.927 468.405 -642H465.48C798.214 -443.112 1110.43 -313.356 1396.15 -255.493C1494.85 -235.506 1591.67 -223.947 1683.94 -221.138ZM941.316 -302.354C1099.12 -245.492 1253.33 -206.888 1399.67 -187.615C1474.53 -177.756 1548.57 -172.797 1620.58 -172.797C1641.19 -172.797 1661.65 -173.204 1681.9 -174.019C1717.22 -175.439 1752.29 -178.12 1787 -182.032V-183.541C1752.27 -179.622 1717.18 -176.939 1681.84 -175.517C1590.94 -171.859 1496.07 -176.431 1399.86 -189.102C1253.63 -208.36 1099.52 -246.939 941.825 -303.765C796.683 -356.066 645.203 -425.006 491.593 -508.668C416.664 -549.478 340.838 -593.961 264.284 -642H261.47C338.734 -593.46 415.262 -548.534 490.875 -507.352C644.552 -423.652 796.102 -354.681 941.316 -302.354ZM396.369 -480.646C548.327 -397.081 698.821 -327.893 843.671 -275.004C1001.07 -217.535 1155.67 -177.908 1303.17 -157.223C1385.89 -145.623 1467.83 -139.785 1547.54 -139.785C1567.61 -139.785 1587.53 -140.155 1607.29 -140.896C1667.95 -143.172 1728.05 -148.988 1787 -158.257V-159.775C1728.03 -150.494 1667.92 -144.672 1607.24 -142.395C1509.07 -138.712 1406.84 -144.2 1303.38 -158.708C1155.98 -179.378 1001.48 -218.98 844.186 -276.414C699.407 -329.275 548.983 -398.432 397.091 -481.959C309.148 -530.322 220.181 -583.739 130.476 -642H127.723C218.116 -583.23 307.761 -529.373 396.369 -480.646Z" fill="url(#paint0_linear_4488_82988)"/>
</g>
<defs>
<linearGradient id="paint0_linear_4488_82988" x1="827" y1="159" x2="827" y2="438" gradientUnits="userSpaceOnUse">
<stop stop-color="#161616" stop-opacity="0"/>
<stop offset="1" stop-color="#161616"/>
</linearGradient>
</defs>
</svg>
